<svg width="192" height="192" viewBox="0 0 192 192" fill="none" xmlns="http://www.w3.org/2000/svg">
<path d="M174.608 103.352V49.2262H154.989V57.8529C154.989 63.3258 152.113 66.0622 146.362 66.0622C143.765 66.0622 141.631 65.4592 139.962 64.2534C138.385 62.9547 137.596 60.8676 137.596 57.9921V50.7568C137.596 49.4581 137.875 48.5305 138.431 47.974C138.988 47.3247 140.101 47 141.771 47H187.826C189.588 47 190.701 47.5566 191.165 48.6697C191.722 49.7828 192 52.2873 192 56.1832V102.517C192 106.32 191.768 109.798 191.304 112.952C190.841 116.106 189.449 118.796 187.13 121.022C184.811 123.249 181.194 125.011 176.277 126.31C171.361 127.516 164.45 128.119 155.545 128.119V137.441C155.545 140.224 154.664 142.264 152.902 143.563C151.139 144.955 148.774 145.65 145.806 145.65C142.652 145.65 140.147 144.955 138.292 143.563C136.53 142.172 135.648 140.085 135.648 137.302V125.753H155.545C159.72 125.753 163.059 125.568 165.564 125.197C168.068 124.826 169.97 123.898 171.268 122.414C172.66 120.837 173.541 118.564 173.912 115.596C174.376 112.628 174.608 108.546 174.608 103.352Z" fill="white"/>
<path d="M92.2041 112.813V122.971C92.2041 125.753 91.3229 127.98 89.5605 129.649C87.798 131.226 85.4327 132.015 82.4643 132.015C79.3105 132.015 76.806 131.18 74.9508 129.51C73.1883 127.84 72.3071 125.614 72.3071 122.831V115.04C81.3976 114.576 87.2415 112.257 89.8388 108.083C87.3342 108.083 84.9689 107.99 82.7426 107.804C80.6091 107.526 78.7539 106.923 77.177 105.996C75.6929 105.068 74.487 103.63 73.5594 101.682C72.7245 99.7342 72.3071 97.0442 72.3071 93.6121V66.4798C72.3071 63.5115 72.6318 61.0069 73.2811 58.9662C74.0232 56.8327 75.3682 55.1167 77.3162 53.818C79.2641 52.4266 82.0006 51.4527 85.5254 50.8961C89.0503 50.2468 93.6883 49.9221 99.4394 49.9221C104.727 49.9221 109.086 50.2468 112.519 50.8961C115.951 51.4527 118.641 52.3803 120.589 53.6789C122.537 54.8848 123.882 56.5081 124.624 58.5488C125.366 60.5895 125.737 63.0477 125.737 65.9232V75.9413C125.737 80.1155 125.041 83.5012 123.65 86.0985C122.258 88.603 120.31 90.551 117.806 91.9424C115.301 93.3338 112.287 94.3078 108.762 94.8643C105.33 95.3281 101.573 95.56 97.4915 95.56C96.0073 95.56 94.4304 95.3281 92.7607 94.8643C91.091 94.4005 89.7924 93.844 88.8648 93.1946V98.8994C88.8648 101.033 89.4677 102.703 90.6736 103.908C91.9722 105.022 93.5492 105.856 95.4044 106.413C97.3523 106.969 99.4394 107.341 101.666 107.526C103.985 107.619 106.165 107.665 108.205 107.665H125.737V131.876C125.737 134.937 124.948 137.302 123.371 138.972C121.887 140.549 119.847 141.337 117.249 141.337C111.313 141.337 108.344 138.183 108.344 131.876V110.448C104.819 110.448 101.898 110.402 99.5786 110.309C97.2596 110.216 95.4971 109.891 94.2912 109.335C93.8274 109.706 93.3636 110.123 92.8998 110.587C92.436 110.958 92.2041 111.7 92.2041 112.813ZM108.344 66.4798C108.344 63.6042 108.112 61.3316 107.649 59.6619C107.185 57.8995 106.536 56.5545 105.701 55.6269C104.959 54.6993 104.031 54.0963 102.918 53.818C101.898 53.5398 100.738 53.4006 99.4394 53.4006C97.8625 53.4006 96.4247 53.5398 95.1261 53.818C93.8274 54.0963 92.7143 54.6993 91.7867 55.6269C90.8591 56.5545 90.117 57.8995 89.5605 59.6619C89.0967 61.3316 88.8648 63.6042 88.8648 66.4798V90.551C90.0707 91.3858 91.4621 91.9888 93.039 92.3598C94.7087 92.6381 96.1928 92.7772 97.4915 92.7772C98.6973 92.7772 99.9496 92.5453 101.248 92.0815C102.547 91.6177 103.706 90.922 104.727 89.9944C105.747 89.0668 106.582 87.8609 107.231 86.3768C107.973 84.8926 108.344 83.1302 108.344 81.0895V66.4798Z" fill="white"/>
<path d="M48.2816 70.097V75.8017C48.2816 77.2859 47.6786 78.5845 46.4727 79.6977C45.3596 80.718 43.8755 81.6456 42.0203 82.4805C40.2578 83.3153 38.3099 84.0574 36.1764 84.7067C34.0429 85.356 32.0022 86.0053 30.0542 86.6547C35.0633 86.6547 39.3302 86.8866 42.8551 87.3504C46.4727 87.7214 49.3947 88.5099 51.6209 89.7157C53.8472 90.8289 55.4705 92.4058 56.4908 94.4465C57.5112 96.4872 58.0214 99.1309 58.0214 102.377V130.623C58.0214 134.148 57.1865 136.838 55.5168 138.693C53.9399 140.455 51.8528 141.337 49.2555 141.337C46.38 141.337 44.2001 140.595 42.716 139.11C41.3246 137.626 40.6289 134.797 40.6289 130.623V102.656C40.6289 99.873 40.3042 97.6467 39.6549 95.977C39.0983 94.3074 38.1707 93.0087 36.8721 92.0811C35.6662 91.0608 33.9965 90.4114 31.8631 90.1332C29.8223 89.7621 27.3642 89.5766 24.4886 89.5766C21.6131 90.6897 19.7115 92.2666 18.7839 94.3074C17.8563 96.2553 17.3925 98.4352 17.3925 100.847V130.762C17.3925 137.812 14.7025 141.337 9.32238 141.337C6.44682 141.337 4.1742 140.641 2.50452 139.25C0.83484 137.765 0 134.936 0 130.762V101.403C0 98.8062 0.78846 96.58 2.36538 94.7248C3.9423 92.8696 5.89026 91.2927 8.20926 89.994C10.5283 88.6026 13.0328 87.4431 15.7228 86.5155C18.5056 85.5879 21.0565 84.7531 23.3755 84.011C25.6945 83.2689 27.6425 82.5732 29.2194 81.9239C30.7963 81.2746 31.5848 80.5789 31.5848 79.8368V76.6366C31.3065 76.8221 30.6108 77.1468 29.4977 77.6106C28.3846 78.0744 27.1323 78.5382 25.7409 79.002C24.4423 79.4658 23.0972 79.8832 21.7058 80.2542C20.4072 80.6253 19.3868 80.8108 18.6448 80.8108C16.3258 80.8108 14.4706 80.718 13.0792 80.5325C11.6878 80.2542 10.621 79.7904 9.87894 79.1411C9.13686 78.4918 8.62668 77.5642 8.3484 76.3583C8.16288 75.0597 8.07012 73.4364 8.07012 71.4884C8.07012 69.6332 7.1889 68.4737 5.42646 68.0099C3.75678 67.5461 1.94796 67.3142 0 67.3142V59.6615C0 53.5394 2.73642 50.4783 8.20926 50.4783C10.8065 50.4783 12.7545 51.2204 14.0531 52.7045C15.3518 54.0959 16.0011 56.4149 16.0011 59.6615V64.9488C17.4853 64.9488 18.552 65.088 19.2013 65.3662C19.9434 65.6445 20.3144 66.2475 20.3144 67.1751V70.6536C20.3144 72.5088 20.871 73.8538 21.9841 74.6886C23.19 75.5235 24.535 75.9409 26.0192 75.9409C27.3178 75.9409 28.3846 75.6626 29.2194 75.106C30.147 74.4567 30.9355 73.8074 31.5848 73.1581V70.7927C31.5848 70.2361 31.6775 69.6332 31.8631 68.9839C32.0486 68.2418 32.4196 67.5925 32.9762 67.0359C33.5327 66.3866 34.3212 65.8764 35.3415 65.5054C36.3619 65.0416 37.7069 64.8097 39.3766 64.8097C41.139 64.8097 42.5768 64.9952 43.6899 65.3662C44.8958 65.7373 45.8234 66.2011 46.4727 66.7577C47.2148 67.3142 47.6786 67.9171 47.8641 68.5665C48.1424 69.123 48.2816 69.6332 48.2816 70.097Z" fill="white"/>
</svg>
